<?xml version="1.0" encoding="UTF-8"?>
<svg width="40" height="40" viewBox="0 0 40 40" fill="none" xmlns="http://www.w3.org/2000/svg">
  <circle cx="20" cy="20" r="18" fill="#2AABEE" fill-opacity="0.2"/>
  <circle cx="20" cy="20" r="12" fill="#2AABEE"/>
  <path d="M26 16H25V15C25 13.9 24.1 13 23 13H17C15.9 13 15 13.9 15 15V16H14C13.45 16 13 16.45 13 17V27C13 27.55 13.45 28 14 28H26C26.55 28 27 27.55 27 27V17C27 16.45 26.55 16 26 16ZM17 15H23V16H17V15ZM25 26H15V18H16V24H17V18H23V24H24V18H25V26Z" fill="white"/>
</svg>
