<?xml version="1.0" encoding="UTF-8"?>
<svg width="512" height="512" version="1.1" viewBox="0 0 512 512" xmlns="http://www.w3.org/2000/svg">
 <path d="m256 0c-141.38 0-256 114.61-256 256s114.61 256 256 256 256-114.61 256-256-114.61-256-256-256zm0 68.267c103.82 0 187.73 83.911 187.73 187.73s-83.911 187.73-187.73 187.73-187.73-83.911-187.73-187.73 83.911-187.73 187.73-187.73zm93.867 93.866c-25.956 0-46.933 20.978-46.933 46.933s20.978 46.933 46.933 46.933 46.933-20.978 46.933-46.933-20.978-46.933-46.933-46.933z" fill="#2AABEE"/>
</svg>
