<?xml version="1.0" encoding="UTF-8"?>
<svg width="240" height="240" viewBox="0 0 240 240" fill="none" xmlns="http://www.w3.org/2000/svg">
  <circle cx="120" cy="120" r="120" fill="#2775CA"/>
  <path d="M135.999 146.925V157.616C136.116 157.616 136.256 157.628 136.361 157.628C144.544 157.628 152.704 156.273 160.444 153.6C168.184 150.927 175.249 147.036 181.359 142.101C187.469 137.167 192.497 131.276 196.239 124.677C199.981 118.079 202.376 110.889 203.321 103.447H192.544C189.729 120.704 177.599 135.276 160.864 141.66C153.031 145.061 144.564 146.844 135.999 146.925ZM135.999 82.3733V93.0747C152.844 93.1547 169.129 99.6427 181.079 111.593C183.124 113.637 185.029 115.821 186.774 118.125H198.699C189.869 99.7013 171.904 86.3947 151.124 83.6533C146.201 82.8533 141.124 82.4533 135.999 82.3733ZM104.001 146.925C87.1563 146.845 70.8709 140.357 58.9209 128.407C56.8763 126.363 54.9709 124.179 53.2256 121.875H41.3009C50.1309 140.299 68.0963 153.605 88.8763 156.347C93.7989 157.147 98.8763 157.547 104.001 157.627V146.925ZM104.001 93.0747V82.3733C95.8176 82.3733 87.6576 83.728 79.9176 86.4013C72.1776 89.0747 65.1123 92.9653 59.0023 97.8987C52.8923 102.833 47.8643 108.724 44.1223 115.323C40.3803 121.921 37.9856 129.111 37.0403 136.553H47.8176C50.6323 119.296 62.7623 104.724 79.4976 98.3413C87.3309 94.9387 95.4363 93.156 104.001 93.0747Z" fill="white"/>
  <path d="M120 132C126.627 132 132 126.627 132 120C132 113.373 126.627 108 120 108C113.373 108 108 113.373 108 120C108 126.627 113.373 132 120 132Z" fill="white"/>
</svg>
